<svg width="375" height="323" viewBox="0 0 375 323" fill="none" xmlns="http://www.w3.org/2000/svg">
<g opacity="0.05" clip-path="url(#clip0_292_7291)">
<path d="M204.914 57.4626C204.023 58.7036 203.308 59.7157 202.294 61.1327C201.721 58.1315 201.403 55.6936 200.768 53.3349C199.869 49.9553 198.166 46.6989 197.822 43.284C196.887 34.1661 198.572 25.7171 206.298 19.6179C208.177 18.1393 208.556 16.96 207.233 14.7245C204.137 9.47025 206.933 3.83756 213.169 3.01905C215.965 2.64941 219.025 3.09826 221.786 3.83756C225.261 4.77927 226.91 8.06208 226.196 11.6177C225.87 13.2547 225.12 14.8037 224.794 16.4407C224.635 17.2152 224.732 18.6058 225.19 18.8522C230.491 21.7742 232.396 26.8964 234.257 32.1155C234.566 32.9692 235.333 33.6644 235.924 34.4125C236.462 35.0902 237.335 35.6623 237.538 36.4192C238.27 39.2267 238.967 42.0783 239.285 44.9562C239.408 46.1092 238.535 47.3677 238.103 48.5823C237.653 49.8321 236.736 51.0906 236.806 52.3052C237 55.7904 237.503 59.2756 238.103 62.7256C238.217 63.3681 239.293 64.2658 239.981 64.3186C241.798 64.4507 243.642 64.2218 245.467 64.0722C249.692 63.7378 253.952 62.9017 258.133 63.1833C261.22 63.3945 264.28 64.8995 267.226 66.1141C275.296 69.4497 279.865 76.2881 283.296 83.6986C287.529 92.8342 290.925 102.357 294.77 111.677C297.461 118.181 297.831 124.835 296.649 131.691C296.199 134.279 296.005 136.936 295.97 139.559C295.952 140.712 296.561 141.9 296.967 143.036C299.145 149.091 301.306 155.146 303.555 161.175C305.901 167.476 308.168 173.813 310.814 179.991C312.445 183.802 315.091 187.191 316.573 191.037C317.896 194.46 319.845 196.045 323.4 196.863C328.665 198.069 333.745 200.04 338.923 201.633C339.717 201.88 340.599 201.836 341.869 201.968C341.092 199.503 339.487 198.218 337.723 197.409C334.61 195.983 332.625 193.51 330.897 190.799C330.42 190.051 330.879 188.775 330.57 187.86C329.838 185.65 329.044 183.433 327.968 181.373C327.651 180.757 326.328 180.643 325.455 180.335C324.493 180 322.932 179.947 322.677 179.349C322.315 178.478 322.518 176.691 323.162 176.216C326.566 173.69 327.545 169.826 329.388 166.385C330.95 163.463 333.357 160.99 335.439 158.358C335.774 157.936 336.418 157.469 336.903 157.487C341.419 157.593 345.979 157.487 350.424 158.138C352.17 158.393 353.678 160.356 355.292 161.544C355.407 161.632 355.46 161.791 355.575 161.879C359.032 164.783 360.602 168.62 361.484 172.95C361.819 174.614 363.116 176.084 363.927 177.668C364.183 178.17 364.474 178.777 364.412 179.287C364.051 182.033 364.836 185.114 362.225 187.252C362.022 187.419 361.854 187.754 361.837 188.018C361.678 191.503 361.413 194.997 361.484 198.482C361.519 200.234 362.675 201.079 364.668 201.369C372.297 202.469 378.718 205.638 381.787 213.259C383.948 218.619 387.194 223.275 390.537 227.905C391.463 229.189 392.239 230.378 392.274 232.199C392.301 233.748 393.765 235.218 394.109 236.829C395.273 242.25 396.181 247.725 397.293 253.155C397.593 254.625 397.945 256.244 398.801 257.406C402.779 262.827 398.863 271.127 392.362 272.975C390.96 273.371 390.466 272.711 390.51 271.391C390.545 270.203 390.51 269.006 390.51 267.219C389.117 268.434 388.288 269.155 387.458 269.877C387.212 269.824 386.956 269.771 386.709 269.718C386.603 267.536 386.462 265.353 386.427 263.17C386.409 262.378 386.497 261.525 386.771 260.785C388.376 256.455 387.361 252.504 385.298 248.587C383.869 245.876 382.731 243.007 381.39 240.244C381.046 239.54 380.561 238.809 379.953 238.343C378.859 237.506 377.836 237.753 377.369 239.117C377.13 239.795 377.095 240.552 377.078 241.282C376.91 247.874 376.601 254.466 376.672 261.049C376.698 263.866 377.457 266.682 377.995 269.472C378.577 272.535 379.23 275.58 379.962 278.608C380.57 281.107 381.452 283.554 379.6 285.948C379.282 286.361 379.203 287.074 379.247 287.629C379.512 291.554 379.847 295.47 380.147 299.396C380.2 300.047 380.323 300.725 380.244 301.358C379.715 305.442 378.965 309.499 378.639 313.592C378.471 315.669 379.036 317.799 379.291 319.902C379.353 320.404 379.547 320.897 379.635 321.398C380.553 326.503 379.574 327.7 374.52 327.691C372.465 327.691 370.41 327.665 368.355 327.691C366.441 327.718 365.462 326.741 365.444 324.893C365.426 322.182 365.497 319.471 365.568 316.769C365.612 314.78 364.906 313.495 362.86 312.8C362.11 312.545 361.343 311.277 361.228 310.388C360.531 304.949 358.565 299.924 356.474 294.934C356.016 293.833 355.231 292.874 354.252 291.281C353.846 292.619 353.59 293.27 353.449 293.939C352.426 298.718 351.376 303.497 350.424 308.294C349.877 311.075 348.598 313.134 345.811 314.199C345.026 314.498 344.382 315.37 343.862 316.109C342.98 317.359 342.204 318.688 341.48 320.043C341.048 320.853 340.74 321.751 340.501 322.648C339.708 325.737 338.887 328.818 338.244 331.942C337.811 334.037 337.653 336.184 337.397 338.305C337.335 338.807 337.45 339.335 337.353 339.828C337.009 341.641 336.612 343.445 336.224 345.249C335.792 347.274 336.621 348.066 338.676 348.022C342.786 347.943 346.896 348.066 351.006 347.969C353.123 347.916 353.775 348.699 353.74 350.812C353.617 357.844 353.687 364.876 353.678 371.908C353.678 372.77 353.599 373.624 353.555 374.592H-25.7792C-25.8409 373.827 -25.9379 373.114 -25.9379 372.41C-25.9556 365.087 -25.9115 357.756 -25.9997 350.433C-26.0173 348.603 -25.3646 347.969 -23.5742 347.987C-17.2592 348.039 -10.9441 347.837 -4.63791 348.075C-1.63033 348.189 0.424696 347.133 2.48855 345.1C5.28445 342.336 8.52134 340.022 11.3613 337.293C12.8343 335.876 14.2631 334.134 14.9863 332.259C16.1594 329.205 16.8561 325.949 17.4912 322.736C17.7646 321.354 17.597 319.805 17.2795 318.406C16.3093 314.111 15.5949 309.895 16.1505 305.398C17.2001 296.879 16.0623 288.535 13.5575 280.271C12.4638 276.654 12.358 272.614 12.4903 268.786C12.6667 263.382 13.5751 258.004 13.9544 252.609C14.0514 251.271 13.3282 249.863 12.9489 248.499C12.4109 246.572 11.9346 244.627 11.2555 242.743C10.7792 241.432 10.1795 240.085 9.32395 239.003C8.33612 237.762 6.9514 236.838 5.82246 235.693C3.0442 232.886 1.67712 229.577 2.17985 225.546C2.6914 221.409 2.956 217.238 3.52929 213.101C3.80271 211.121 3.14122 209.774 1.82705 208.419C-1.06586 205.453 -1.1717 205.101 1.45662 202.056C3.07066 200.19 3.33526 198.403 2.55911 196.229C1.92408 194.434 1.52718 192.542 0.759851 190.817C-0.130957 188.81 0.0718994 187.103 1.60656 185.598C5.64606 181.62 6.55451 177.025 5.6637 171.41C4.57004 164.493 4.5524 157.408 3.89091 150.411C3.58221 147.137 2.13575 144.277 -0.333813 141.988C-1.83319 140.598 -3.44723 139.269 -4.69965 137.667C-7.48673 134.12 -10.5649 130.943 -14.3133 128.408C-15.063 127.898 -15.9362 127.114 -16.1302 126.314C-17.6296 119.95 -17.5943 113.561 -14.5074 107.699C-12.3024 103.51 -9.50648 99.5934 -6.64884 95.8001C-5.02599 93.6439 -4.50562 91.514 -5.08773 89.0497C-5.564 87.0079 -5.05245 85.4149 -3.32375 84.2795C-0.58959 82.4753 2.06519 80.4686 4.99339 79.0253C7.26892 77.8987 8.08035 76.0593 8.84768 74.0086C9.41215 72.5037 9.87078 70.9547 10.4705 69.4585C11.5554 66.7917 13.1253 64.5563 16.08 63.685C18.8671 62.8577 20.3576 60.7454 21.4954 58.2811C21.9805 57.2162 22.4479 56.1424 22.9595 55.0863C23.9385 53.0797 25.5261 51.8563 27.8104 51.8827C30.1565 51.9091 32.4938 52.2347 34.8399 52.2083C37.4329 52.1731 40.0348 51.9443 42.619 51.6979C43.942 51.5747 44.6917 50.7562 44.1801 49.4184C43.6774 48.0982 43.695 46.1884 41.4371 46.3644C39.6908 46.4964 37.9356 46.602 36.1805 46.6725C34.9457 46.7253 34.3283 46.1092 34.2048 44.8418C34.0549 43.24 33.7991 41.647 33.5257 40.054C33.1641 37.977 32.679 36.0671 31.1179 34.3421C28.8512 31.825 29.6714 26.8348 32.0616 24.4849C32.8995 23.6664 33.4022 22.3462 33.6845 21.1581C34.4606 17.9017 34.7252 14.4957 35.7659 11.3361C37.0536 7.4284 40.3435 5.24573 43.942 3.49431C49.0575 1.02121 54.3935 -0.149338 60.1 0.0178828C66.5473 0.202706 70.9308 3.59993 74.3529 8.62535C77.6163 13.4131 79.4596 18.7994 80.7473 24.3969C81.3206 26.8876 81.9733 29.3695 82.4937 31.869C82.7935 33.2948 83.0228 34.7558 83.0493 36.208C83.0934 39.2707 81.4441 41.1278 78.4365 41.6646C75.817 42.1311 73.7708 46.1532 75.0938 48.5119C75.3672 49.0047 76.4344 49.2776 77.14 49.2864C79.195 49.3216 81.2412 49.1632 83.2963 49.084C89.7524 48.8375 92.2925 53.0356 92.954 58.4923C93.1833 60.3494 93.7566 61.7223 95.256 62.6992C95.8205 63.0601 96.5966 63.3417 97.214 63.2537C97.4874 63.2097 97.752 62.1624 97.7785 61.5551C98.0254 55.5528 98.1754 49.5504 98.4753 43.5569C98.5194 42.6504 99.2073 41.7703 99.6042 40.8813C99.9923 41.7967 100.698 42.7032 100.716 43.6185C100.813 50.721 100.76 57.8322 100.768 64.9347C100.768 67.9975 103.15 70.365 106.184 70.6466C106.986 70.717 108.221 71.2979 108.424 71.914C109.685 75.6368 112.755 77.4851 115.771 79.4125C120.393 82.3609 122.871 86.471 123.603 91.9629C124.203 96.4426 125.632 100.799 126.549 105.235C128.101 112.681 129.654 120.126 130.994 127.607C132.255 134.666 133.428 141.751 134.31 148.862C135.148 155.674 135.554 162.539 136.154 169.377C136.348 171.551 136.515 173.725 136.842 175.881C136.939 176.497 137.53 177.043 137.697 177.298C138.826 175.916 139.885 174.711 140.846 173.426C141.111 173.065 141.296 172.449 141.181 172.035C139.329 165.091 142.839 160.224 147.434 155.762C150.027 153.254 153.026 151.529 156.669 151.08C156.951 151.045 157.233 150.913 157.498 150.807C160.444 149.592 162.569 150.068 164.88 152.18C165.938 153.148 167.261 153.826 168.461 154.653C172.509 157.452 175.349 160.963 175.464 166.174C175.508 168.145 176.258 170.249 175.781 172.053C175.014 174.992 174.944 177.967 174.45 180.898C174.07 183.133 173.303 185.184 171.178 186.839C169.334 188.282 168.346 190.817 166.715 193.263C167.817 193.343 168.576 193.545 169.272 193.431C174.899 192.498 180.535 191.609 186.127 190.491C189.17 189.875 192.134 188.854 195.115 187.956C195.573 187.816 196.111 187.499 196.332 187.111C197.84 184.445 199.322 181.752 200.724 179.023C201.659 177.21 201.103 175.529 200.213 173.804C199.604 172.625 198.89 171.146 199.101 169.949C199.86 165.505 197.99 162.02 195.714 158.525C193.245 154.723 190.775 150.895 188.606 146.926C187.662 145.201 187.388 143.097 186.939 141.135C186.586 139.586 186.277 138.01 186.215 136.435C186.162 135.035 186.524 133.627 186.639 132.21C187.459 122.661 187.953 113.068 189.161 103.563C190.555 92.6142 195.106 83.2322 204.887 77.1418C206.095 76.3849 207.586 76.0769 208.944 75.5488C210.84 74.8095 212.71 73.9998 214.642 73.3574C215.621 73.0317 216.794 73.1989 217.72 72.7853C218.655 72.3716 219.396 71.5267 220.216 70.8755C219.678 70.3386 219.202 69.4497 218.584 69.3265C213.125 68.2791 209.412 64.9875 206.625 60.4286C206.069 59.5221 205.549 58.5891 204.914 57.489V57.4626ZM295.785 348.013C303.784 348.013 311.784 348.013 319.784 348.013C322.588 348.013 323.435 346.834 322.932 344.176C322.756 343.252 323.082 342.116 323.479 341.21C324.608 338.622 325.79 336.176 325.861 333.174C325.958 329.337 326.443 325.447 327.36 321.724C328.224 318.248 329.115 314.974 328.701 311.251C328.401 308.566 329.856 305.724 329.935 302.943C330.103 297.477 329.865 292.003 329.75 286.529C329.75 286.141 329.477 285.569 329.168 285.42C327.563 284.619 327.704 283.237 327.783 281.82C328.065 276.487 328.304 271.144 328.612 265.82C328.692 264.438 328.886 263.047 329.186 261.701C330.05 257.784 331.197 253.921 331.849 249.969C332.634 245.216 333.013 240.393 333.569 235.597C334.001 231.821 334.425 228.045 334.857 224.27C335.033 222.712 334.495 221.779 332.943 221.048C328.85 219.121 324.837 217 320.895 214.782C319.907 214.228 318.858 213.119 318.611 212.08C318.125 210.073 317.173 208.551 315.506 207.495C311.352 204.881 308.723 201.167 307.154 196.564C306.369 194.276 305.575 194.346 303.723 195.789C300.459 198.342 297.152 200.929 293.553 202.945C290.519 204.643 287.018 205.224 283.649 203.314C281.223 201.941 281.091 202.029 280.747 204.872C279.856 212.203 278.868 219.526 278.021 226.866C277.184 234.136 276.407 241.414 275.772 248.701C275.552 251.245 275.914 253.824 275.79 256.385C275.711 258.022 274.943 259.641 274.979 261.252C275.049 264.895 275.675 268.53 275.631 272.165C275.543 279.479 275.234 286.784 274.873 294.089C274.494 301.93 273.126 309.614 271.116 317.218C270.533 319.409 271.151 321.935 271.318 324.303C271.415 325.649 271.874 326.987 271.892 328.325C271.918 330.877 272.156 333.526 270.039 335.577C269.784 335.823 269.828 336.413 269.766 336.844C269.484 338.974 269.528 341.21 268.884 343.216C267.896 346.27 268.831 347.978 271.997 347.978C279.927 347.978 287.856 347.978 295.776 347.978L295.785 348.013ZM48.9605 232.93C45.5825 234.576 45.1062 235.333 45.4413 238.378C45.5648 239.469 45.9176 240.534 45.9882 241.617C46.1558 244.213 46.438 246.836 46.2704 249.414C45.997 253.701 44.7269 258.022 45.0886 262.229C45.9617 272.288 47.0113 282.304 47.2759 292.434C47.4611 299.457 45.9176 305.09 40.0348 309.218C38.65 310.195 38.4295 311.629 38.5089 313.31C39.0205 323.986 39.4791 334.662 39.8055 345.346C39.8672 347.379 40.5287 348.119 42.4955 348.083C46.7555 348.013 51.0155 348.022 55.2667 348.022C69.1404 348.022 83.0228 348.004 96.8965 348.066C98.731 348.066 99.322 347.476 99.2867 345.645C99.2338 342.803 99.3661 339.942 99.6042 337.108C99.7806 335.005 100.733 332.858 100.46 330.851C99.8335 326.239 99.0838 321.566 97.6286 317.156C95.8469 311.761 92.7159 306.78 91.243 301.323C89.7524 295.805 87.7503 290.674 84.9368 285.754C83.7373 283.651 82.8376 281.354 83.5344 278.819C84.0636 276.918 84.7604 275.052 85.2102 273.133C85.9246 270.115 87.812 267.307 86.8859 263.998C85.7041 259.773 84.5487 255.54 83.261 251.351C83.0317 250.62 82.2996 249.81 81.6028 249.502C78.8599 248.305 77.5192 246.396 76.5226 243.465C72.3596 231.214 67.7909 219.112 63.3104 206.975C63.037 206.245 62.2344 205.717 61.6699 205.092C61.2554 206.025 60.4616 206.975 60.5233 207.873C60.6204 209.369 61.2466 210.83 61.6699 212.3C64.3776 221.717 67.0677 231.135 69.8018 240.543C70.5074 242.981 70.3751 243.306 67.9144 243.808C67.4117 243.914 66.9001 243.984 66.4062 244.116C63.1428 245.014 62.8959 244.891 62.1462 241.599C61.1143 237.031 60.1441 232.455 59.0681 227.896C58.8299 226.875 58.2654 225.942 57.6304 224.454C57.0924 225.423 56.7661 225.731 56.7925 226.012C56.9777 228.556 56.916 231.17 57.5158 233.616C58.6888 238.369 60.2676 243.016 61.6523 247.716C63.6456 254.519 65.6036 261.34 67.5881 268.143C70.0664 276.636 72.5625 285.12 75.0056 293.622C75.1379 294.098 74.9879 295.066 74.7233 295.162C73.1799 295.752 71.5658 296.412 69.9606 296.456C69.4755 296.474 68.7435 294.652 68.4612 293.587C67.2088 288.852 66.071 284.082 64.9068 279.32C63.4515 273.353 62.0139 267.377 60.541 261.419C59.2797 256.306 58.045 251.183 56.6338 246.114C56.4486 245.463 55.302 245.023 54.5435 244.591C53.6968 244.107 52.5149 243.975 51.9504 243.298C50.2658 241.256 48.8987 239.011 49.2251 236.125C49.3397 235.157 49.0575 234.144 48.934 232.921L48.9605 232.93ZM211.246 192.867C208.159 196.432 205.487 199.618 202.691 202.689C201.827 203.631 200.724 204.59 199.551 204.978C194.197 206.729 188.808 208.366 183.375 209.853C181.523 210.364 181.285 211.323 181.594 212.916C182.097 215.495 182.573 218.091 182.97 220.688C184.134 228.265 185.298 235.843 186.365 243.438C186.595 245.058 186.392 246.73 186.427 248.376C186.427 248.877 186.365 249.511 186.63 249.854C189.258 253.19 187.688 256.314 186.33 259.518C185.845 260.653 185.475 261.965 185.519 263.179C185.889 272.614 186.551 282.031 186.771 291.466C186.947 298.921 184.875 306.041 182.917 313.196C180.968 320.307 179.715 327.612 178.225 334.847C178.039 335.744 178.198 336.73 178.304 337.663C178.586 340.206 178.921 342.741 179.283 345.637C180.685 347.784 183.199 348.092 185.986 348.048C192.001 347.951 198.025 348.022 204.049 348.022C207.436 348.022 208.38 347.635 208.98 344.361C209.509 341.5 209.235 338.481 209.2 335.533C209.182 334.398 209.103 333.139 208.618 332.145C206.995 328.783 207.604 325.447 208.927 322.358C209.958 319.964 210.505 317.711 210.17 315.159C209.729 311.823 209.262 308.487 209.032 305.143C208.221 293.569 208.574 282.022 210.126 270.519C210.576 267.193 211.211 263.892 211.546 260.557C211.899 257.01 211.961 253.445 212.216 249.89C212.357 247.927 212.869 245.973 212.825 244.019C212.507 228.063 212.111 212.098 211.705 196.141C211.678 195.164 211.44 194.188 211.246 192.859V192.867ZM138.958 180.211C139.02 180.871 139.038 181.848 139.223 182.781C139.814 185.818 139.717 188.792 138.262 191.556C136.762 194.408 135.025 197.118 133.534 199.97C132.158 202.601 130.227 203.561 127.175 203.605C123.559 203.657 122.712 200.991 121.292 198.834C120.119 197.057 122.457 196.458 122.898 195.191C123.144 194.487 123.533 193.783 123.559 193.07C123.568 192.841 122.456 192.234 122.183 192.383C121.486 192.762 120.701 193.378 120.463 194.073C120.057 195.226 120.137 196.537 119.837 197.734C119.696 198.298 119.211 199.063 118.752 199.169C118.311 199.266 117.376 198.729 117.226 198.28C116.344 195.675 115.568 193.026 114.916 190.359C114.783 189.84 115.242 189.109 115.568 188.564C117.2 185.791 118.964 183.089 120.49 180.255C120.887 179.516 120.948 177.8 120.56 177.562C117.676 175.864 118.135 172.942 117.561 170.381C117.341 169.377 118.038 167.863 116.23 167.582C116.097 168.568 115.745 169.588 115.859 170.548C116.247 173.69 116.141 176.445 112.808 178.214C112.049 178.618 111.59 180.299 111.635 181.364C111.767 184.277 112.252 187.182 112.569 190.095C112.772 191.996 112.499 193.58 110.206 194.108C108.495 194.496 107.992 195.657 108.239 197.426C108.821 201.572 110.047 205.383 111.846 209.246C115.833 217.836 117.112 226.91 114.633 236.354C111.899 246.756 113.593 257.168 115.409 267.483C116.371 272.931 118.62 278.22 119.043 283.677C119.678 291.888 119.652 300.214 119.061 308.434C118.717 313.222 117.738 317.931 118.576 322.763C119.087 325.72 118.929 328.932 120.084 331.599C121.963 335.92 124.494 339.995 127.078 343.964C129.486 347.652 133.296 348.506 137.503 348.013C138.729 347.872 139.973 347.837 141.199 347.749C141.022 346.534 140.634 345.311 140.714 344.123C140.943 340.585 141.313 337.056 141.737 333.535C141.834 332.708 142.628 331.916 142.619 331.115C142.592 327.612 142.513 324.109 142.204 320.624C142.01 318.432 142.072 316.47 143.421 314.569C143.977 313.786 144.012 312.545 144.021 311.515C144.021 309.992 143.527 308.443 143.686 306.947C144.065 303.391 144.753 299.871 145.203 296.315C145.388 294.898 145.573 293.367 145.247 292.02C143.307 283.959 141.966 275.826 141.825 267.509C141.798 266.128 141.031 264.755 140.608 263.382C139.982 264.042 139.788 264.596 139.752 265.16C139.541 268.733 139.355 272.306 139.17 275.879C138.897 281.204 137.591 282.102 132.705 280.297C132.502 280.218 132.264 280.192 132.079 280.086C130.042 278.889 128.472 277.428 128.26 274.832C128.039 272.13 128.022 269.278 127.096 266.797C126.231 264.482 124.908 262.414 125.111 259.782C125.244 258.066 124.926 256.314 125.094 254.616C125.305 252.521 125.967 250.471 126.161 248.367C126.593 243.641 126.69 238.888 127.237 234.171C128.066 227.051 129.107 219.948 130.165 212.855C130.377 211.438 130.659 209.633 131.603 208.806C135.492 205.4 139.708 202.355 143.686 199.037C144.647 198.236 145.838 196.907 145.794 195.86C145.67 192.823 145.062 189.796 144.453 186.803C144.259 185.87 143.58 184.955 142.919 184.207C141.675 182.808 140.281 181.54 138.932 180.203L138.958 180.211ZM247.875 215.847C246.517 224.023 245.432 232.015 243.412 239.944C241.798 246.272 241.604 252.944 240.581 259.43C240.228 261.692 239.302 263.866 238.588 266.057C237.574 269.146 235.995 272.156 235.571 275.325C234.786 281.186 235.025 287.18 234.169 293.024C233.172 299.809 231.602 306.525 229.98 313.205C229.195 316.443 228.983 319.489 230.041 322.675C230.703 324.672 231.77 326.943 231.356 328.8C230.615 332.145 229.988 335.7 228.78 338.745C227.66 341.579 228.383 343.621 228.851 346.006C229.142 347.511 230.209 348.066 231.77 348.039C236.251 347.978 240.722 348.022 245.203 348.031C248.166 348.031 251.756 343.12 250.371 340.523C249.375 338.657 249.516 336.915 249.516 335.031C249.516 334.098 249.56 333.025 249.136 332.268C247.849 329.98 248.069 327.858 249.092 325.561C250.574 322.243 252.347 318.961 251.774 315.088C251.191 311.18 250.433 307.282 250.159 303.356C249.666 296.43 249.357 289.486 249.216 282.542C249.119 277.948 249.613 273.336 249.524 268.742C249.489 266.744 248.29 264.772 248.237 262.774C247.99 254.581 247.937 246.378 247.875 238.184C247.822 230.738 247.866 223.293 247.866 215.856L247.875 215.847ZM209.456 158.649C209.667 158.622 209.888 158.596 210.1 158.57C210.452 156.061 210.629 153.518 211.193 151.062C212.754 144.347 214.219 137.623 213.742 130.67C213.663 129.552 213.037 128.364 212.358 127.431C211.035 125.627 209.473 124.008 208.071 122.265C207.762 121.887 207.718 121.297 207.551 120.813C207.242 120.998 206.924 121.182 206.616 121.367C205.39 124.351 203.458 127.255 204.058 130.608C204.376 132.404 205.504 133.962 204.208 135.81C203.979 136.136 204.358 136.919 204.499 137.473C205.205 140.219 206.042 142.93 206.616 145.702C207.295 148.994 207.709 152.347 208.336 155.656C208.53 156.686 209.068 157.645 209.438 158.64L209.456 158.649ZM279.741 132.686C279.521 130.776 279.309 129.367 279.212 127.959C279.062 125.926 278.789 123.876 278.948 121.86C279.062 120.373 279.009 119.193 277.924 118.049C277.457 117.556 277.237 116.588 277.316 115.875C277.66 112.777 274.546 107.611 271.098 106.212C272.439 113.35 273.664 120.311 275.102 127.229C275.57 129.456 276.796 131.409 279.75 132.686H279.741ZM97.2405 114.379C97.0023 114.467 96.7642 114.555 96.5349 114.652C96.9053 118.463 97.1876 122.291 97.7344 126.076C97.8138 126.63 99.1015 127.299 99.8864 127.396C101.545 127.598 103.256 127.51 104.931 127.44C105.611 127.414 106.272 127.106 106.942 126.921C106.607 126.252 106.369 125.495 105.919 124.914C103.414 121.693 100.857 118.507 98.2989 115.321C98.0078 114.96 97.5933 114.687 97.2405 114.37V114.379ZM163.028 323.282C165.021 319.973 166.644 306.498 165.321 304.87C164.563 310.943 163.831 316.866 163.028 323.282ZM143.421 244.635C143.227 244.653 143.033 244.662 142.83 244.679V249.969C143.024 249.969 143.218 249.969 143.421 249.96V244.635Z" fill="#252525"/>
<path d="M163.037 323.273C163.84 316.857 164.572 310.934 165.33 304.861C166.653 306.489 165.03 319.955 163.037 323.273Z" fill="white"/>
<path d="M143.421 244.627V249.951C143.227 249.951 143.033 249.951 142.83 249.96V244.671C143.024 244.653 143.218 244.644 143.421 244.627Z" fill="white"/>
</g>
<defs>
<clipPath id="clip0_292_7291">
<rect width="426" height="323" fill="white" transform="translate(-26)"/>
</clipPath>
</defs>
</svg>
