<svg width="394" height="299" viewBox="0 0 394 299" fill="none" xmlns="http://www.w3.org/2000/svg">
<g opacity="0.05" clip-path="url(#clip0_292_6278)">
<path d="M213.568 53.1928C212.744 54.3416 212.083 55.2785 211.145 56.5902C210.615 53.812 210.321 51.5553 209.734 49.3718C208.902 46.2433 207.327 43.2289 207.009 40.0678C206.144 31.6274 207.702 23.8061 214.848 18.1602C216.586 16.7914 216.937 15.6997 215.713 13.6303C212.85 8.7665 215.436 3.55233 221.203 2.79465C223.789 2.45247 226.619 2.86797 229.173 3.55233C232.387 4.42408 233.912 7.46296 233.251 10.7544C232.949 12.2698 232.256 13.7037 231.954 15.219C231.807 15.936 231.897 17.2232 232.321 17.4513C237.224 20.1562 238.986 24.8978 240.707 29.7291C240.993 30.5194 241.702 31.163 242.249 31.8555C242.746 32.4828 243.554 33.0124 243.742 33.713C244.419 36.312 245.063 38.9516 245.357 41.6158C245.471 42.683 244.663 43.8481 244.264 44.9724C243.848 46.1293 242.999 47.2943 243.065 48.4186C243.244 51.6449 243.709 54.8712 244.264 58.0648C244.37 58.6596 245.365 59.4906 246.001 59.5395C247.682 59.6617 249.386 59.4499 251.075 59.3114C254.982 59.0018 258.922 58.2278 262.789 58.4885C265.644 58.684 268.475 60.0772 271.199 61.2015C278.663 64.2893 282.889 70.6196 286.062 77.4795C289.977 85.9362 293.118 94.7514 296.675 103.379C299.163 109.4 299.505 115.559 298.412 121.906C297.996 124.301 297.817 126.762 297.784 129.189C297.768 130.257 298.331 131.356 298.706 132.407C300.721 138.013 302.719 143.618 304.799 149.199C306.969 155.032 309.066 160.898 311.513 166.617C313.022 170.145 315.469 173.282 316.84 176.842C318.063 180.011 319.866 181.478 323.153 182.235C328.023 183.352 332.722 185.176 337.51 186.651C338.245 186.879 339.06 186.839 340.235 186.961C339.517 184.68 338.032 183.49 336.401 182.74C333.521 181.421 331.686 179.131 330.087 176.622C329.647 175.929 330.071 174.748 329.785 173.901C329.108 171.856 328.374 169.803 327.379 167.896C327.085 167.326 325.862 167.22 325.054 166.935C324.165 166.625 322.721 166.577 322.484 166.023C322.15 165.216 322.338 163.562 322.933 163.122C326.082 160.784 326.987 157.207 328.692 154.022C330.136 151.317 332.363 149.028 334.288 146.592C334.598 146.201 335.194 145.769 335.642 145.785C339.819 145.883 344.036 145.785 348.148 146.388C349.763 146.624 351.158 148.441 352.65 149.541C352.756 149.622 352.805 149.769 352.911 149.85C356.109 152.539 357.561 156.091 358.377 160.1C358.687 161.639 359.886 163 360.636 164.466C360.873 164.931 361.142 165.493 361.085 165.966C360.751 168.507 361.477 171.359 359.062 173.339C358.874 173.493 358.719 173.803 358.703 174.048C358.556 177.274 358.312 180.508 358.377 183.734C358.409 185.356 359.478 186.138 361.322 186.407C368.378 187.425 374.316 190.358 377.155 197.413C379.154 202.375 382.155 206.685 385.247 210.97C386.104 212.16 386.822 213.26 386.854 214.946C386.879 216.38 388.233 217.741 388.551 219.232C389.628 224.25 390.468 229.318 391.496 234.344C391.773 235.705 392.099 237.204 392.891 238.28C396.57 243.298 392.948 250.981 386.936 252.692C385.639 253.058 385.182 252.447 385.223 251.225C385.255 250.125 385.223 249.017 385.223 247.364C383.934 248.488 383.167 249.156 382.4 249.824C382.172 249.775 381.935 249.726 381.707 249.677C381.609 247.657 381.478 245.636 381.446 243.616C381.43 242.883 381.511 242.092 381.764 241.408C383.249 237.4 382.31 233.742 380.402 230.116C379.08 227.607 378.028 224.951 376.788 222.393C376.47 221.741 376.021 221.065 375.458 220.633C374.447 219.859 373.501 220.087 373.068 221.35C372.848 221.977 372.815 222.678 372.799 223.354C372.644 229.456 372.359 235.558 372.424 241.652C372.448 244.26 373.15 246.867 373.647 249.449C374.186 252.284 374.789 255.103 375.466 257.906C376.029 260.22 376.845 262.485 375.132 264.701C374.838 265.084 374.765 265.744 374.806 266.257C375.05 269.89 375.36 273.516 375.638 277.15C375.687 277.752 375.801 278.38 375.728 278.966C375.238 282.747 374.545 286.502 374.243 290.291C374.088 292.214 374.61 294.185 374.847 296.132C374.904 296.597 375.083 297.053 375.165 297.517C376.013 302.243 375.108 303.351 370.433 303.343C368.533 303.343 366.632 303.318 364.731 303.343C362.961 303.367 362.056 302.463 362.039 300.752C362.023 298.242 362.088 295.733 362.154 293.232C362.194 291.391 361.542 290.201 359.649 289.558C358.956 289.321 358.246 288.148 358.14 287.325C357.496 282.29 355.677 277.638 353.743 273.019C353.319 272.001 352.593 271.113 351.688 269.638C351.313 270.876 351.076 271.479 350.945 272.098C349.999 276.522 349.029 280.946 348.148 285.386C347.642 287.961 346.459 289.867 343.881 290.853C343.155 291.13 342.56 291.937 342.078 292.621C341.263 293.778 340.545 295.008 339.876 296.263C339.476 297.012 339.191 297.843 338.97 298.674C338.236 301.534 337.478 304.385 336.882 307.278C336.483 309.217 336.336 311.205 336.099 313.168C336.042 313.632 336.148 314.121 336.058 314.577C335.74 316.256 335.373 317.926 335.014 319.596C334.614 321.47 335.381 322.203 337.282 322.162C341.083 322.089 344.885 322.203 348.686 322.114C350.644 322.065 351.247 322.79 351.215 324.745C351.1 331.255 351.166 337.764 351.158 344.274C351.158 345.072 351.084 345.862 351.043 346.759H0.203889C0.146787 346.05 0.0570563 345.39 0.0570563 344.738C0.0407416 337.96 0.0815283 331.173 -4.51884e-05 324.395C-0.0163599 322.7 0.587284 322.114 2.24323 322.13C8.08389 322.179 13.9246 321.991 19.7571 322.211C22.5387 322.317 24.4394 321.34 26.3482 319.458C28.9341 316.899 31.9278 314.757 34.5545 312.231C35.9168 310.919 37.2383 309.306 37.9072 307.571C38.9921 304.744 39.6365 301.729 40.2239 298.756C40.4767 297.477 40.3217 296.043 40.0281 294.747C39.1308 290.772 38.47 286.869 38.9839 282.706C39.9547 274.819 38.9024 267.096 36.5857 259.446C35.5742 256.097 35.4763 252.358 35.5986 248.814C35.7618 243.811 36.602 238.834 36.9528 233.839C37.0425 232.601 36.3736 231.297 36.0228 230.035C35.5252 228.25 35.0847 226.45 34.4566 224.706C34.0161 223.492 33.4614 222.246 32.6701 221.244C31.7565 220.095 30.4758 219.24 29.4317 218.181C26.8621 215.582 25.5977 212.518 26.0627 208.787C26.5358 204.958 26.7805 201.096 27.3108 197.267C27.5636 195.434 26.9518 194.187 25.7364 192.933C23.0608 190.187 22.9629 189.861 25.3938 187.042C26.8866 185.315 27.1313 183.661 26.4135 181.649C25.8261 179.987 25.459 178.235 24.7494 176.638C23.9255 174.781 24.1131 173.2 25.5325 171.807C29.2685 168.125 30.1087 163.872 29.2848 158.674C28.2733 152.27 28.257 145.712 27.6452 139.235C27.3597 136.204 26.0219 133.556 23.7378 131.438C22.3511 130.151 20.8583 128.92 19.7 127.438C17.1222 124.154 14.2753 121.213 10.8084 118.867C10.1151 118.394 9.30749 117.669 9.12803 116.928C7.74128 111.038 7.77391 105.123 10.629 99.6967C12.6683 95.8187 15.2542 92.1932 17.8972 88.6818C19.3981 86.6857 19.8794 84.7141 19.341 82.4329C18.9005 80.5428 19.3737 79.0682 20.9725 78.0172C23.5013 76.347 25.9566 74.4895 28.6649 73.1533C30.7695 72.1105 31.52 70.4077 32.2296 68.5095C32.7517 67.1163 33.1759 65.6824 33.7306 64.2974C34.734 61.8288 36.186 59.7594 38.9187 58.9529C41.4964 58.187 42.875 56.2317 43.9273 53.9505C44.3759 52.9647 44.8083 51.9708 45.2814 50.9931C46.1869 49.1356 47.6552 48.0031 49.7679 48.0276C51.9378 48.052 54.0995 48.3534 56.2694 48.329C58.6676 48.2964 61.074 48.0846 63.4641 47.8565C64.6878 47.7424 65.3811 46.9847 64.908 45.7464C64.443 44.5243 64.4593 42.7564 62.3711 42.9193C60.7559 43.0415 59.1326 43.1393 57.5093 43.2045C56.3672 43.2533 55.7962 42.683 55.682 41.5098C55.5434 40.0271 55.3068 38.5524 55.0539 37.0778C54.7195 35.1551 54.2708 33.3872 52.827 31.7903C50.7305 29.4602 51.4892 24.8408 53.6998 22.6655C54.4747 21.9078 54.9397 20.6858 55.2007 19.5859C55.9186 16.5715 56.1633 13.4185 57.1259 10.4937C58.3169 6.87636 61.3596 4.85587 64.6878 3.23459C69.419 0.945247 74.3542 -0.138322 79.632 0.0164732C85.595 0.187563 89.6492 3.33236 92.8143 7.98437C95.8325 12.4164 97.5374 17.4025 98.7284 22.584C99.2586 24.8897 99.8622 27.1872 100.344 29.501C100.621 30.8208 100.833 32.1732 100.857 33.5175C100.898 36.3527 99.3728 38.0718 96.5911 38.5687C94.1684 39.0005 92.2759 42.7238 93.4995 44.9072C93.7524 45.3634 94.7394 45.616 95.392 45.6242C97.2927 45.6567 99.1852 45.5101 101.086 45.4368C107.057 45.2086 109.406 49.0948 110.018 54.1461C110.23 55.8651 110.76 57.1361 112.147 58.0404C112.669 58.3744 113.387 58.6351 113.958 58.5537C114.211 58.5129 114.456 57.5434 114.48 56.9813C114.709 51.4249 114.847 45.8686 115.125 40.3204C115.165 39.4812 115.802 38.6665 116.169 37.8436C116.528 38.6909 117.18 39.5301 117.197 40.3774C117.286 46.9521 117.237 53.535 117.246 60.1098C117.246 62.945 119.448 65.1366 122.254 65.3973C122.996 65.4624 124.139 66.0001 124.326 66.5704C125.493 70.0167 128.331 71.7276 131.121 73.5118C135.396 76.2411 137.688 80.0458 138.365 85.1296C138.92 89.2765 140.241 93.3094 141.089 97.4155C142.525 104.308 143.961 111.2 145.201 118.126C146.367 124.66 147.452 131.218 148.268 137.801C149.043 144.107 149.418 150.462 149.973 156.792C150.152 158.804 150.307 160.817 150.609 162.813C150.699 163.383 151.245 163.888 151.4 164.124C152.445 162.845 153.423 161.729 154.313 160.54C154.557 160.206 154.729 159.635 154.623 159.252C152.91 152.824 156.156 148.319 160.406 144.188C162.804 141.866 165.578 140.269 168.947 139.854C169.208 139.821 169.469 139.699 169.714 139.601C172.438 138.477 174.404 138.917 176.541 140.872C177.52 141.769 178.744 142.396 179.853 143.162C183.597 145.752 186.224 149.003 186.33 153.826C186.371 155.651 187.064 157.598 186.624 159.269C185.914 161.99 185.849 164.743 185.392 167.456C185.041 169.526 184.332 171.424 182.366 172.956C180.661 174.292 179.747 176.638 178.238 178.903C179.258 178.977 179.959 179.164 180.604 179.058C185.808 178.194 191.021 177.372 196.192 176.337C199.007 175.767 201.748 174.821 204.505 173.99C204.929 173.86 205.427 173.567 205.63 173.208C207.025 170.74 208.396 168.247 209.693 165.721C210.557 164.043 210.044 162.487 209.22 160.89C208.657 159.798 207.996 158.429 208.192 157.321C208.893 153.207 207.164 149.981 205.059 146.746C202.775 143.227 200.491 139.683 198.485 136.008C197.612 134.412 197.359 132.464 196.943 130.648C196.617 129.214 196.331 127.755 196.274 126.297C196.225 125.002 196.559 123.698 196.666 122.386C197.424 113.547 197.881 104.666 198.999 95.8676C200.287 85.7325 204.497 77.0477 213.543 71.4099C214.661 70.7092 216.039 70.424 217.295 69.9352C219.049 69.2509 220.779 68.5013 222.565 67.9066C223.471 67.6051 224.555 67.7599 225.412 67.377C226.277 66.9941 226.962 66.212 227.721 65.6091C227.223 65.1121 226.782 64.2892 226.211 64.1752C221.162 63.2057 217.728 60.1587 215.15 55.9384C214.636 55.0993 214.155 54.2357 213.568 53.2173V53.1928ZM297.613 322.154C305.011 322.154 312.41 322.154 319.809 322.154C322.403 322.154 323.186 321.063 322.721 318.602C322.558 317.747 322.86 316.696 323.227 315.857C324.271 313.461 325.364 311.196 325.429 308.418C325.519 304.866 325.968 301.265 326.816 297.819C327.615 294.601 328.439 291.57 328.056 288.124C327.779 285.639 329.125 283.007 329.198 280.433C329.353 275.373 329.133 270.306 329.027 265.238C329.027 264.88 328.774 264.35 328.488 264.212C327.004 263.47 327.134 262.191 327.208 260.88C327.469 255.943 327.689 250.997 327.974 246.068C328.048 244.789 328.227 243.502 328.505 242.255C329.304 238.63 330.365 235.053 330.968 231.395C331.694 226.996 332.045 222.531 332.559 218.091C332.959 214.596 333.35 211.101 333.75 207.606C333.913 206.164 333.415 205.3 331.98 204.624C328.195 202.839 324.483 200.876 320.837 198.823C319.923 198.31 318.952 197.283 318.724 196.322C318.275 194.464 317.394 193.055 315.853 192.077C312.01 189.657 309.58 186.219 308.128 181.958C307.402 179.84 306.667 179.905 304.954 181.241C301.936 183.604 298.877 185.999 295.549 187.865C292.743 189.437 289.504 189.975 286.388 188.207C284.145 186.936 284.023 187.018 283.704 189.649C282.881 196.436 281.967 203.214 281.184 210.009C280.409 216.738 279.691 223.476 279.104 230.222C278.9 232.577 279.234 234.964 279.12 237.334C279.047 238.85 278.337 240.349 278.37 241.84C278.435 245.213 279.014 248.578 278.973 251.942C278.892 258.713 278.606 265.475 278.272 272.237C277.921 279.496 276.656 286.608 274.797 293.647C274.258 295.676 274.829 298.014 274.984 300.206C275.074 301.452 275.498 302.691 275.514 303.929C275.539 306.292 275.759 308.744 273.801 310.642C273.565 310.871 273.606 311.416 273.549 311.816C273.288 313.787 273.328 315.857 272.733 317.714C271.819 320.541 272.684 322.122 275.612 322.122C282.946 322.122 290.279 322.122 297.605 322.122L297.613 322.154ZM69.3293 215.622C66.205 217.146 65.7645 217.847 66.0745 220.665C66.1887 221.676 66.515 222.661 66.5803 223.664C66.7352 226.067 66.9963 228.495 66.8413 230.882C66.5884 234.85 65.4137 238.85 65.7482 242.744C66.5558 252.056 67.5265 261.328 67.7712 270.705C67.9425 277.207 66.515 282.421 61.074 286.242C59.7933 287.146 59.5894 288.474 59.6628 290.03C60.1359 299.913 60.5601 309.795 60.8619 319.686C60.9191 321.568 61.5309 322.252 63.3499 322.22C67.2899 322.154 71.2299 322.162 75.1618 322.162C87.9933 322.162 100.833 322.146 113.664 322.203C115.361 322.203 115.908 321.657 115.875 319.963C115.826 317.331 115.949 314.683 116.169 312.06C116.332 310.113 117.213 308.125 116.96 306.267C116.381 301.998 115.688 297.672 114.342 293.59C112.694 288.596 109.798 283.985 108.436 278.934C107.057 273.826 105.205 269.076 102.603 264.521C101.494 262.574 100.662 260.448 101.306 258.102C101.796 256.342 102.44 254.615 102.856 252.838C103.517 250.044 105.262 247.445 104.406 244.382C103.313 240.471 102.244 236.552 101.053 232.674C100.841 231.998 100.164 231.249 99.5196 230.963C96.9827 229.855 95.7428 228.087 94.821 225.374C90.9707 214.034 86.7452 202.831 82.6013 191.596C82.3484 190.92 81.6061 190.431 81.084 189.853C80.7006 190.717 79.9665 191.596 80.0236 192.427C80.1133 193.812 80.6925 195.165 81.084 196.525C83.5883 205.243 86.0763 213.96 88.6051 222.67C89.2577 224.926 89.1353 225.228 86.8594 225.692C86.3945 225.79 85.9213 225.855 85.4645 225.977C82.4463 226.808 82.2179 226.694 81.5245 223.647C80.5701 219.419 79.6728 215.182 78.6776 210.962C78.4574 210.017 77.9353 209.154 77.348 207.777C76.8504 208.673 76.5485 208.958 76.573 209.219C76.7443 211.573 76.6872 213.993 77.2419 216.258C78.3268 220.657 79.787 224.959 81.0677 229.31C82.9113 235.607 84.7222 241.921 86.5576 248.219C88.8498 256.081 91.1583 263.935 93.4179 271.805C93.5403 272.245 93.4016 273.141 93.1569 273.231C91.7294 273.777 90.2366 274.388 88.7519 274.428C88.3033 274.445 87.6262 272.758 87.3652 271.772C86.2068 267.389 85.1545 262.974 84.0778 258.566C82.7318 253.042 81.4022 247.51 80.0399 241.995C78.8734 237.261 77.7314 232.52 76.4262 227.827C76.2549 227.224 75.1944 226.817 74.4929 226.417C73.7098 225.969 72.6167 225.847 72.0946 225.22C70.5366 223.33 69.2722 221.252 69.574 218.58C69.68 217.684 69.419 216.747 69.3048 215.614L69.3293 215.622ZM219.425 178.537C216.569 181.836 214.098 184.785 211.512 187.629C210.712 188.501 209.693 189.389 208.608 189.747C203.656 191.368 198.672 192.884 193.647 194.261C191.934 194.733 191.714 195.621 192 197.096C192.464 199.483 192.905 201.886 193.272 204.29C194.349 211.304 195.426 218.319 196.413 225.35C196.625 226.849 196.437 228.397 196.47 229.921C196.47 230.385 196.413 230.972 196.657 231.289C199.088 234.377 197.636 237.269 196.38 240.235C195.931 241.286 195.589 242.5 195.63 243.624C195.972 252.358 196.584 261.075 196.788 269.809C196.951 276.71 195.034 283.301 193.223 289.924C191.42 296.507 190.262 303.269 188.883 309.966C188.712 310.797 188.859 311.71 188.957 312.573C189.218 314.928 189.528 317.274 189.862 319.955C191.159 321.943 193.484 322.228 196.062 322.187C201.625 322.097 207.197 322.162 212.768 322.162C215.901 322.162 216.773 321.804 217.328 318.773C217.818 316.125 217.565 313.331 217.532 310.602C217.516 309.551 217.442 308.386 216.994 307.465C215.493 304.353 216.056 301.265 217.279 298.405C218.234 296.189 218.739 294.104 218.429 291.741C218.021 288.653 217.589 285.566 217.377 282.47C216.627 271.756 216.953 261.067 218.389 250.419C218.805 247.339 219.392 244.284 219.702 241.196C220.028 237.913 220.085 234.613 220.322 231.322C220.452 229.505 220.925 227.696 220.885 225.888C220.591 211.117 220.224 196.338 219.849 181.567C219.824 180.663 219.604 179.759 219.425 178.528V178.537ZM152.567 166.821C152.624 167.432 152.64 168.336 152.812 169.2C153.358 172.011 153.268 174.764 151.922 177.323C150.536 179.962 148.929 182.472 147.55 185.111C146.278 187.547 144.491 188.435 141.669 188.476C138.324 188.525 137.541 186.056 136.228 184.06C135.143 182.415 137.304 181.861 137.712 180.687C137.941 180.036 138.3 179.384 138.324 178.724C138.332 178.512 137.304 177.95 137.052 178.088C136.407 178.439 135.681 179.009 135.461 179.653C135.086 180.72 135.159 181.934 134.882 183.042C134.751 183.563 134.303 184.272 133.878 184.37C133.471 184.46 132.606 183.963 132.467 183.547C131.651 181.135 130.934 178.683 130.33 176.215C130.208 175.734 130.632 175.058 130.934 174.553C132.443 171.986 134.074 169.485 135.485 166.862C135.852 166.177 135.91 164.589 135.551 164.369C132.883 162.796 133.307 160.091 132.777 157.721C132.573 156.792 133.218 155.391 131.545 155.13C131.423 156.042 131.097 156.987 131.203 157.875C131.562 160.784 131.464 163.334 128.38 164.972C127.679 165.346 127.255 166.902 127.295 167.888C127.418 170.585 127.866 173.274 128.16 175.97C128.348 177.73 128.095 179.196 125.974 179.685C124.391 180.044 123.926 181.119 124.155 182.757C124.693 186.594 125.827 190.122 127.491 193.698C131.178 201.65 132.361 210.05 130.069 218.792C127.54 228.421 129.106 238.06 130.787 247.608C131.676 252.651 133.756 257.548 134.148 262.599C134.735 270.2 134.71 277.907 134.164 285.517C133.846 289.949 132.94 294.307 133.715 298.78C134.188 301.518 134.042 304.491 135.11 306.96C136.848 310.96 139.189 314.732 141.579 318.407C143.806 321.82 147.33 322.611 151.221 322.154C152.355 322.024 153.505 321.991 154.639 321.91C154.476 320.786 154.117 319.653 154.19 318.553C154.402 315.278 154.745 312.011 155.136 308.752C155.226 307.986 155.96 307.253 155.952 306.512C155.928 303.269 155.854 300.027 155.569 296.8C155.389 294.772 155.446 292.955 156.695 291.195C157.208 290.47 157.241 289.321 157.249 288.368C157.249 286.959 156.792 285.525 156.939 284.14C157.29 280.848 157.926 277.589 158.342 274.298C158.514 272.986 158.685 271.569 158.383 270.322C156.588 262.859 155.349 255.332 155.218 247.632C155.194 246.353 154.484 245.082 154.092 243.811C153.513 244.423 153.334 244.936 153.301 245.457C153.105 248.765 152.934 252.073 152.763 255.38C152.51 260.309 151.302 261.14 146.783 259.47C146.596 259.397 146.375 259.372 146.204 259.275C144.32 258.167 142.868 256.814 142.672 254.411C142.468 251.91 142.452 249.27 141.595 246.973C140.796 244.83 139.572 242.915 139.76 240.479C139.882 238.891 139.589 237.269 139.744 235.697C139.939 233.758 140.551 231.86 140.731 229.912C141.13 225.537 141.22 221.138 141.726 216.771C142.493 210.18 143.455 203.605 144.434 197.039C144.63 195.727 144.891 194.057 145.764 193.291C149.361 190.138 153.26 187.319 156.939 184.248C157.828 183.506 158.93 182.276 158.889 181.307C158.775 178.496 158.212 175.693 157.649 172.923C157.469 172.06 156.841 171.212 156.23 170.52C155.079 169.224 153.79 168.051 152.542 166.813L152.567 166.821ZM253.302 199.809C252.046 207.377 251.042 214.775 249.174 222.116C247.682 227.973 247.502 234.149 246.556 240.153C246.23 242.247 245.373 244.26 244.712 246.288C243.774 249.148 242.314 251.934 241.923 254.867C241.197 260.293 241.417 265.841 240.625 271.251C239.704 277.532 238.252 283.749 236.751 289.932C236.025 292.931 235.829 295.749 236.808 298.699C237.42 300.548 238.407 302.65 238.023 304.369C237.338 307.465 236.759 310.757 235.641 313.575C234.605 316.199 235.274 318.089 235.707 320.297C235.976 321.69 236.963 322.203 238.407 322.179C242.551 322.122 246.686 322.162 250.83 322.171C253.571 322.171 256.891 317.625 255.611 315.221C254.689 313.494 254.819 311.881 254.819 310.137C254.819 309.274 254.86 308.28 254.469 307.579C253.278 305.461 253.481 303.497 254.428 301.371C255.798 298.299 257.438 295.261 256.908 291.676C256.369 288.059 255.668 284.449 255.415 280.816C254.958 274.404 254.672 267.976 254.542 261.548C254.452 257.295 254.909 253.026 254.827 248.773C254.795 246.924 253.685 245.099 253.636 243.249C253.408 235.664 253.359 228.071 253.302 220.486C253.253 213.594 253.294 206.701 253.294 199.817L253.302 199.809ZM217.769 146.86C217.964 146.836 218.168 146.812 218.364 146.787C218.69 144.465 218.854 142.111 219.376 139.838C220.819 133.621 222.174 127.397 221.733 120.961C221.66 119.926 221.08 118.826 220.452 117.963C219.229 116.292 217.785 114.793 216.488 113.18C216.202 112.83 216.162 112.284 216.007 111.836C215.721 112.007 215.427 112.178 215.142 112.349C214.008 115.111 212.222 117.8 212.776 120.904C213.07 122.566 214.114 124.008 212.915 125.719C212.703 126.02 213.054 126.745 213.184 127.258C213.837 129.8 214.612 132.31 215.142 134.876C215.77 137.923 216.153 141.027 216.733 144.09C216.912 145.044 217.41 145.932 217.752 146.852L217.769 146.86ZM282.775 122.826C282.571 121.059 282.375 119.755 282.285 118.451C282.146 116.569 281.894 114.671 282.04 112.805C282.146 111.429 282.097 110.337 281.094 109.278C280.662 108.822 280.458 107.925 280.531 107.265C280.849 104.398 277.97 99.6152 274.78 98.3198C276.02 104.927 277.154 111.372 278.484 117.775C278.916 119.836 280.05 121.645 282.783 122.826H282.775ZM113.983 105.88C113.762 105.962 113.542 106.043 113.33 106.133C113.673 109.661 113.934 113.205 114.439 116.708C114.513 117.221 115.704 117.84 116.43 117.93C117.963 118.117 119.546 118.036 121.096 117.971C121.724 117.946 122.336 117.661 122.956 117.49C122.646 116.871 122.425 116.17 122.009 115.633C119.693 112.651 117.327 109.701 114.961 106.752C114.692 106.418 114.309 106.166 113.983 105.872V105.88ZM174.828 299.261C176.672 296.198 178.173 283.724 176.949 282.217C176.248 287.839 175.571 293.322 174.828 299.261ZM156.695 226.458C156.515 226.474 156.336 226.482 156.148 226.499V231.395C156.327 231.395 156.507 231.395 156.695 231.387V226.458Z" fill="#252525"/>
<path d="M174.836 299.253C175.579 293.313 176.256 287.83 176.957 282.209C178.181 283.716 176.68 296.181 174.836 299.253Z" fill="white"/>
<path d="M156.695 226.45V231.379C156.515 231.379 156.336 231.379 156.148 231.387V226.491C156.327 226.475 156.507 226.466 156.695 226.45Z" fill="white"/>
</g>
<defs>
<clipPath id="clip0_292_6278">
<rect width="394" height="299" fill="white"/>
</clipPath>
</defs>
</svg>
