<svg width="24" height="24" viewBox="0 0 24 24" fill="none" xmlns="http://www.w3.org/2000/svg">
<g id="Frame 49">
<path id="Vector" d="M6.2 4C3.88044 4 2 6.04686 2 8.57143V15.4286C2 17.9531 3.88044 20 6.2 20H18.8C21.1196 20 23 17.9531 23 15.4286V8.57143C23 6.04686 21.1196 4 18.8 4H6.2ZM11.15 8.57143C11.2805 8.57143 11.3947 8.61142 11.5016 8.67885C11.5624 8.71657 15.3034 11.2297 15.4391 11.384C15.5752 11.5394 15.65 11.7623 15.65 12C15.65 12.1509 15.6158 12.2789 15.5562 12.4023C15.5077 12.5017 15.4468 12.5989 15.3687 12.6697C15.241 12.7851 11.4779 15.3383 11.3844 15.3749C11.3079 15.4046 11.2353 15.4286 11.15 15.4286C10.9626 15.4286 10.7892 15.344 10.6578 15.2137C10.4987 15.0571 10.4 14.8309 10.4 14.5714C10.4 14.3371 10.4 9.66171 10.4 9.42857C10.4 8.95543 10.7358 8.57143 11.15 8.57143Z" fill="#E64A26"/>
</g>
</svg>
